<svg width="30" height="30" viewBox="0 0 30 30" fill="none" xmlns="http://www.w3.org/2000/svg">
<path d="M10.0343 24.156C10.0343 24.28 9.89516 24.3793 9.71976 24.3793C9.52016 24.3979 9.38105 24.2986 9.38105 24.156C9.38105 24.0319 9.52016 23.9326 9.69556 23.9326C9.87702 23.914 10.0343 24.0133 10.0343 24.156ZM8.15323 23.8768C8.11089 24.0009 8.23185 24.1435 8.41331 24.1808C8.57056 24.2428 8.75202 24.1808 8.78831 24.0567C8.8246 23.9326 8.70968 23.79 8.52823 23.7341C8.37097 23.6907 8.19556 23.7527 8.15323 23.8768ZM10.8266 23.7713C10.6512 23.8148 10.5302 23.9326 10.5484 24.0753C10.5665 24.1994 10.7238 24.28 10.9052 24.2366C11.0806 24.1932 11.2016 24.0753 11.1835 23.9512C11.1653 23.8334 11.002 23.7527 10.8266 23.7713ZM14.8065 0C6.41734 0 0 6.53216 0 15.1362C0 22.0158 4.22177 27.9028 10.252 29.9747C11.0262 30.1174 11.2984 29.6273 11.2984 29.2241C11.2984 28.8395 11.2802 26.718 11.2802 25.4152C11.2802 25.4152 7.04637 26.3457 6.15726 23.5666C6.15726 23.5666 5.46774 21.7615 4.47581 21.2962C4.47581 21.2962 3.09073 20.3223 4.57258 20.3409C4.57258 20.3409 6.07863 20.4649 6.90726 21.9414C8.23185 24.3359 10.4516 23.6473 11.3165 23.2379C11.4556 22.2453 11.8488 21.5567 12.2843 21.1473C8.90323 20.7627 5.49194 20.2602 5.49194 14.2926C5.49194 12.5867 5.95161 11.7306 6.91935 10.6388C6.7621 10.2356 6.24798 8.57307 7.07661 6.4267C8.34073 6.02348 11.25 8.10161 11.25 8.10161C12.4597 7.75422 13.7601 7.57433 15.0484 7.57433C16.3367 7.57433 17.6371 7.75422 18.8468 8.10161C18.8468 8.10161 21.756 6.01728 23.0202 6.4267C23.8488 8.57927 23.3347 10.2356 23.1774 10.6388C24.1452 11.7368 24.7379 12.5929 24.7379 14.2926C24.7379 20.2788 21.1754 20.7565 17.7944 21.1473C18.3508 21.6374 18.8226 22.5679 18.8226 24.0257C18.8226 26.1162 18.8044 28.703 18.8044 29.2117C18.8044 29.6149 19.0827 30.105 19.8508 29.9623C25.8992 27.9028 30 22.0158 30 15.1362C30 6.53216 23.1956 0 14.8065 0ZM5.87903 21.3955C5.8004 21.4575 5.81855 21.6002 5.92137 21.718C6.01815 21.8173 6.15726 21.8607 6.23589 21.7801C6.31452 21.718 6.29637 21.5753 6.19355 21.4575C6.09677 21.3582 5.95766 21.3148 5.87903 21.3955ZM5.22581 20.893C5.18347 20.9736 5.24395 21.0729 5.36492 21.1349C5.46169 21.1969 5.58266 21.1783 5.625 21.0915C5.66734 21.0108 5.60685 20.9116 5.48589 20.8496C5.36492 20.8123 5.26815 20.8309 5.22581 20.893ZM7.18548 23.1014C7.08871 23.182 7.125 23.3681 7.26411 23.486C7.40323 23.6287 7.57863 23.6473 7.65726 23.548C7.73589 23.4674 7.6996 23.2813 7.57863 23.1634C7.44556 23.0207 7.26411 23.0021 7.18548 23.1014ZM6.49597 22.1895C6.39919 22.2515 6.39919 22.4128 6.49597 22.5555C6.59274 22.6982 6.75605 22.7602 6.83468 22.6982C6.93145 22.6175 6.93145 22.4562 6.83468 22.3136C6.75 22.1709 6.59274 22.1088 6.49597 22.1895Z" fill="currentColor"/>
</svg>
