<?xml version="1.0" standalone="no"?>
<!DOCTYPE svg PUBLIC "-//W3C//DTD SVG 20010904//EN"
 "http://www.w3.org/TR/2001/REC-SVG-20010904/DTD/svg10.dtd">
<svg version="1.0" xmlns="http://www.w3.org/2000/svg"
 width="512.000000pt" height="512.000000pt" viewBox="0 0 512.000000 512.000000"
 preserveAspectRatio="xMidYMid meet">
<metadata>
Created by potrace 1.14, written by Peter Selinger 2001-2017
</metadata>
<g transform="translate(0.000000,512.000000) scale(0.100000,-0.100000)"
fill="#000000" stroke="none">
<path d="M3158 4734 c-2 -1 -29 -4 -60 -8 -138 -13 -372 -82 -513 -151 -196
-95 -286 -206 -290 -356 -3 -89 -2 -91 130 -579 42 -157 81 -298 85 -315 38
-140 90 -219 181 -273 211 -126 849 9 1076 227 105 100 131 229 84 411 -26
101 -83 315 -180 677 -57 211 -126 300 -271 344 -53 16 -232 33 -242 23z m-37
-463 c9 -1 26 -9 38 -18 20 -17 34 -58 91 -273 26 -97 48 -180 80 -296 29
-106 23 -136 -33 -168 -43 -25 -130 -50 -202 -59 -49 -7 -88 13 -103 50 -9 22
-100 352 -138 498 -4 17 -8 32 -9 35 0 3 -4 14 -8 25 -34 104 -2 149 133 188
67 19 89 23 115 21 11 -1 27 -3 36 -3z"/>
<path d="M1695 4331 c-188 -52 -193 -54 -204 -84 -8 -22 -6 -36 29 -162 12
-44 23 -87 25 -95 2 -8 24 -91 50 -185 25 -93 48 -177 50 -185 1 -8 15 -57 29
-109 14 -52 24 -96 22 -98 -2 -2 -18 15 -37 38 -19 23 -39 47 -44 53 -6 6 -35
40 -64 76 -87 106 -113 113 -256 69 -96 -29 -98 -34 -140 -274 -2 -16 -8 -52
-11 -79 -9 -62 -8 -64 -74 186 -28 106 -58 216 -66 243 -23 81 -76 279 -78
290 -1 6 -8 25 -15 43 -23 56 -26 55 -311 -22 -157 -43 -157 -42 -168 -74 -7
-21 -1 -55 24 -147 19 -66 36 -131 39 -145 3 -14 16 -65 31 -115 14 -49 27
-98 29 -108 2 -10 27 -104 56 -210 28 -106 55 -206 59 -223 16 -66 64 -151
177 -316 122 -177 150 -208 188 -208 28 0 310 74 347 90 15 7 31 24 37 39 5
14 12 123 15 241 2 118 5 216 5 216 1 1 13 5 27 8 33 9 63 -1 72 -23 4 -10 52
-93 107 -185 98 -163 109 -176 160 -181 6 -1 60 12 120 28 61 16 117 30 126
32 39 8 105 29 116 38 17 12 30 66 37 150 3 37 9 97 13 135 4 37 7 119 7 182
-1 102 -6 132 -43 270 -23 85 -43 162 -45 170 -2 9 -24 90 -49 180 -24 91 -47
176 -50 190 -21 97 -76 274 -90 290 -24 29 -58 25 -252 -29z"/>
<path d="M3450 2448 c-406 -38 -739 -312 -856 -703 -22 -77 -27 -110 -28 -225
-2 -199 16 -285 89 -435 214 -442 721 -652 1205 -500 153 49 267 120 391 244
99 100 175 216 219 338 57 159 60 204 58 773 l-3 514 -500 1 c-275 0 -534 -3
-575 -7z m805 -578 c1 -173 -1 -320 -2 -326 -5 -14 -662 -14 -664 1 -1 5 -2
153 -3 327 l-1 317 335 -2 335 -2 0 -315z m-754 -420 c0 -3 1 -150 2 -328 l2
-322 -46 5 c-323 37 -582 292 -624 617 -3 19 1 28 12 30 28 5 653 3 654 -2z
m732 0 c47 0 -13 -215 -96 -340 -45 -67 -149 -165 -227 -211 -82 -48 -202 -89
-274 -92 l-51 -2 0 320 c0 176 2 322 6 325 5 4 414 4 642 0z"/>
</g>
</svg>
