<svg width="51" height="43" viewBox="0 0 51 43" fill="none" xmlns="http://www.w3.org/2000/svg" aria-label="eleventy">
<path d="M16.0942 35.2378C15.702 35.2378 15.5059 34.7149 15.5059 33.6648V7.73311C15.5059 7.23199 15.4057 6.99669 15.2009 7.02719C13.9633 7.34093 13.3402 7.4978 13.3228 7.4978C12.9785 7.5283 12.8086 7.18406 12.8086 6.46507V4.21222C12.8086 3.5891 12.996 3.23614 13.3707 3.1577L19.5671 1.56285C19.6151 1.54977 19.6848 1.54106 19.7763 1.54106C20.1205 1.54106 20.2905 1.90709 20.2905 2.64351V33.6691C20.2905 34.7193 20.0857 35.2422 19.6804 35.2422L16.0942 35.2378ZM32.143 35.2858C31.5155 35.2858 30.9751 35.2422 30.5132 35.155C30.0513 35.0679 29.572 34.8718 29.0709 34.5668C28.5698 34.2617 28.1602 33.8434 27.8377 33.3118C27.5153 32.7802 27.2538 32.035 27.0534 31.0807C26.8529 30.1264 26.7483 28.9935 26.7483 27.6775V15.642C26.7483 15.3283 26.6612 15.1714 26.4912 15.1714H25.0358C24.6436 15.1714 24.4476 14.7967 24.4476 14.0472V12.7791C24.4476 12.0122 24.6436 11.6287 25.0358 11.6287H26.4912C26.6612 11.6287 26.7483 11.4196 26.7483 10.9969L27.171 1.86787C27.2189 1.03994 27.4194 0.625977 27.7811 0.625977H30.1298C30.522 0.625977 30.718 1.03994 30.718 1.86787V10.9969C30.718 11.4196 30.8095 11.6287 31.0013 11.6287H33.9949C34.3871 11.6287 34.5832 12.0122 34.5832 12.7791V14.0472C34.5832 14.7967 34.3871 15.1714 33.9949 15.1714H30.9926C30.8836 15.1714 30.8095 15.1976 30.7703 15.2542C30.7311 15.3065 30.7137 15.4372 30.7137 15.642V27.7516C30.7137 28.658 30.7703 29.4162 30.888 30.0175C31.0056 30.6189 31.1756 31.0633 31.4022 31.3422C31.6288 31.6211 31.8554 31.8128 32.0819 31.9043C32.3085 32.0002 32.5874 32.0438 32.9142 32.0438H34.5788C35.0015 32.0438 35.2107 32.3357 35.2107 32.9109V34.3184C35.2107 34.959 34.9841 35.2814 34.5309 35.2814L32.143 35.2858ZM41.15 38.1007C41.5073 38.1007 41.821 37.8088 42.0868 37.2205C42.3526 36.6322 42.4877 35.8 42.4877 34.7193C42.4877 34.4665 42.3309 33.5994 42.0171 32.1135L37.4156 12.9883C37.3851 12.7704 37.3676 12.5961 37.3676 12.4697C37.3676 11.9076 37.4853 11.6244 37.7206 11.6244H40.5617C40.7796 11.6244 40.9582 11.6985 41.102 11.8466C41.2458 11.9948 41.3548 12.2954 41.4288 12.7486L44.4791 28.8933C44.5401 29.0806 44.5793 29.1765 44.5968 29.1765C44.6578 29.1765 44.6926 29.0894 44.6926 28.9194L47.0849 12.8183C47.1459 12.3477 47.2462 12.034 47.3769 11.8684C47.5076 11.7028 47.6775 11.62 47.8824 11.62H49.852C50.1178 11.62 50.2528 11.925 50.2528 12.5351C50.2528 12.6745 50.2354 12.8576 50.2049 13.0754L46.026 34.8326C45.6992 36.6322 45.3376 38.0092 44.9454 38.9635C44.5532 39.9178 44.1174 40.5671 43.6294 40.9113C43.1457 41.2556 42.5052 41.4342 41.7034 41.4517H41.4681C40.2 41.4517 39.3416 41.1161 38.8884 40.4407C38.762 40.3013 38.701 39.9396 38.701 39.3601C38.701 38.201 38.8884 37.6214 39.2632 37.6214C39.2937 37.6214 39.5769 37.6998 40.1085 37.8567C40.6489 38.0223 40.9931 38.1007 41.15 38.1007Z" fill="white" stroke="white" stroke-width="1.22011" stroke-miterlimit="10"/>
<path d="M4.28558 35.2822C3.8934 35.2822 3.69731 34.7593 3.69731 33.7091V7.77746C3.69731 7.27635 3.59709 7.04104 3.39228 7.07154C2.15475 7.38528 1.53162 7.54215 1.51419 7.54215C1.16994 7.57266 1 7.22841 1 6.50942V4.25658C1 3.63345 1.18737 3.28049 1.56212 3.20206L7.76289 1.60284C7.81082 1.58977 7.88054 1.58105 7.97205 1.58105C8.31629 1.58105 8.48624 1.94709 8.48624 2.68351V33.7091C8.48624 34.7593 8.28143 35.2822 7.87618 35.2822H4.28558Z" fill="white" stroke="white" stroke-width="1.22011" stroke-miterlimit="10"/>
</svg>
