<svg width="45" height="44" viewBox="0 0 45 44" fill="none" xmlns="http://www.w3.org/2000/svg">
<path d="M14.9978 35.4187C14.9978 35.5961 14.7938 35.738 14.5365 35.738C14.2438 35.7646 14.0398 35.6227 14.0398 35.4187C14.0398 35.2413 14.2438 35.0993 14.5011 35.0993C14.7672 35.0727 14.9978 35.2146 14.9978 35.4187ZM12.239 35.0195C12.1769 35.1969 12.3543 35.4009 12.6205 35.4542C12.8511 35.5429 13.1172 35.4542 13.1704 35.2767C13.2237 35.0993 13.0551 34.8953 12.789 34.8155C12.5584 34.7534 12.3011 34.8421 12.239 35.0195ZM16.1599 34.8687C15.9026 34.9308 15.7252 35.0993 15.7518 35.3033C15.7784 35.4808 16.0091 35.5961 16.2752 35.534C16.5325 35.4719 16.7099 35.3033 16.6833 35.1259C16.6567 34.9574 16.4171 34.8421 16.1599 34.8687ZM21.9968 0.875977C9.69311 0.875977 0.28125 10.2169 0.28125 22.5206C0.28125 32.3583 6.47303 40.7766 15.3172 43.7394C16.4526 43.9435 16.8518 43.2427 16.8518 42.6661C16.8518 42.1161 16.8252 39.0823 16.8252 37.2194C16.8252 37.2194 10.6157 38.55 9.31167 34.5759C9.31167 34.5759 8.30041 31.9946 6.8456 31.3293C6.8456 31.3293 4.8142 29.9365 6.98753 29.9632C6.98753 29.9632 9.19635 30.1406 10.4116 32.2518C12.3543 35.6759 15.6099 34.6913 16.8784 34.1058C17.0824 32.6865 17.659 31.7018 18.2977 31.1164C13.339 30.5664 8.33589 29.8478 8.33589 21.3142C8.33589 18.8747 9.01007 17.6506 10.4294 16.0893C10.1987 15.5127 9.44473 13.1353 10.66 10.0661C12.514 9.48947 16.7808 12.4612 16.7808 12.4612C18.555 11.9644 20.4622 11.7072 22.3517 11.7072C24.2411 11.7072 26.1484 11.9644 27.9225 12.4612C27.9225 12.4612 32.1893 9.4806 34.0433 10.0661C35.2586 13.1442 34.5046 15.5127 34.274 16.0893C35.6933 17.6594 36.5626 18.8836 36.5626 21.3142C36.5626 29.8745 31.3377 30.5575 26.379 31.1164C27.1951 31.8171 27.887 33.1478 27.887 35.2324C27.887 38.2218 27.8604 41.9209 27.8604 42.6483C27.8604 43.2249 28.2685 43.9257 29.395 43.7217C38.2658 40.7766 44.2802 32.3583 44.2802 22.5206C44.2802 10.2169 34.3006 0.875977 21.9968 0.875977ZM8.90362 31.4712C8.7883 31.5599 8.81491 31.7639 8.96571 31.9325C9.10764 32.0744 9.31167 32.1365 9.42699 32.0212C9.54231 31.9325 9.5157 31.7284 9.3649 31.5599C9.22296 31.418 9.01894 31.3559 8.90362 31.4712ZM7.94558 30.7527C7.88348 30.868 7.97219 31.0099 8.1496 31.0986C8.29153 31.1873 8.46895 31.1607 8.53104 31.0365C8.59314 30.9212 8.50443 30.7793 8.32702 30.6906C8.1496 30.6373 8.00767 30.6639 7.94558 30.7527ZM10.8197 33.9106C10.6778 34.026 10.731 34.2921 10.935 34.4606C11.139 34.6647 11.3963 34.6913 11.5116 34.5493C11.6269 34.434 11.5737 34.1679 11.3963 33.9993C11.2011 33.7953 10.935 33.7687 10.8197 33.9106ZM9.80843 32.6066C9.6665 32.6953 9.6665 32.926 9.80843 33.13C9.95037 33.334 10.1899 33.4227 10.3052 33.334C10.4471 33.2187 10.4471 32.9881 10.3052 32.7841C10.181 32.58 9.95037 32.4913 9.80843 32.6066Z" fill="white"/>
</svg>
