<svg width="44" height="44" viewBox="0 0 44 44" fill="none" xmlns="http://www.w3.org/2000/svg" aria-label="Netlify">
<path d="M31.5625 15.7633L31.5468 15.7565C31.5378 15.7532 31.5289 15.7498 31.5211 15.742C31.5082 15.7282 31.4987 15.7117 31.4933 15.6936C31.4879 15.6756 31.4866 15.6565 31.4897 15.6379L32.3546 10.3503L36.4104 14.4072L32.1924 16.2018C32.1806 16.2066 32.1681 16.2088 32.1554 16.2086H32.1387C32.1331 16.2052 32.1275 16.2007 32.1163 16.1895C31.9593 16.0148 31.7716 15.8703 31.5625 15.7633ZM37.4453 15.441L41.7819 19.7776C42.6825 20.6794 43.1334 21.1292 43.2979 21.6506C43.3225 21.7278 43.3427 21.805 43.3583 21.8844L32.9946 17.4952C32.989 17.4929 32.9834 17.4907 32.9778 17.4885C32.9364 17.4717 32.8883 17.4527 32.8883 17.4102C32.8883 17.3677 32.9375 17.3475 32.9789 17.3307L32.9923 17.3251L37.4453 15.441ZM43.1815 23.2762C42.9578 23.6969 42.5214 24.1333 41.783 24.8728L36.8937 29.761L30.57 28.4441L30.5365 28.4374C30.4805 28.4285 30.4212 28.4184 30.4212 28.368C30.3972 28.1072 30.3198 27.854 30.1937 27.6244C30.0676 27.3948 29.8956 27.1936 29.6884 27.0333C29.6627 27.0075 29.6694 26.9673 29.6772 26.9303C29.6772 26.9247 29.6772 26.9191 29.6795 26.9147L30.8688 19.6132L30.8732 19.5886C30.88 19.5326 30.89 19.4677 30.9404 19.4677C31.1953 19.436 31.4413 19.3539 31.6641 19.2262C31.8869 19.0984 32.0821 18.9276 32.2382 18.7237C32.2483 18.7125 32.255 18.7002 32.2684 18.6935C32.3042 18.6767 32.3468 18.6935 32.3837 18.7091L43.1804 23.2762H43.1815ZM35.7693 30.8854L27.7293 38.9254L29.1055 30.467L29.1077 30.4558C29.1088 30.4446 29.1111 30.4334 29.1144 30.4233C29.1256 30.3965 29.1547 30.3853 29.1827 30.3741L29.1961 30.3685C29.4974 30.24 29.7639 30.0417 29.9737 29.7901C30.0006 29.7588 30.033 29.7285 30.0744 29.7229C30.0851 29.7212 30.0961 29.7212 30.1068 29.7229L35.7681 30.8865L35.7693 30.8854ZM26.0276 40.6271L25.1213 41.5334L15.1022 27.0534C15.0985 27.0481 15.0948 27.0429 15.091 27.0377C15.0753 27.0165 15.0585 26.9952 15.0619 26.9706C15.063 26.9527 15.0742 26.9371 15.0865 26.9236L15.0977 26.9091C15.1279 26.8643 15.1536 26.8196 15.1816 26.7715L15.204 26.7323L15.2073 26.7289C15.223 26.7021 15.2375 26.6764 15.2644 26.6618C15.2879 26.6506 15.3203 26.6551 15.3461 26.6607L26.446 28.9498C26.4771 28.9547 26.5063 28.9674 26.5311 28.9868C26.5456 29.0013 26.549 29.017 26.5523 29.0349C26.6297 29.3278 26.7738 29.5989 26.9734 29.8269C27.1729 30.055 27.4224 30.2338 27.7025 30.3495C27.7338 30.3652 27.7204 30.3998 27.7058 30.4368C27.6986 30.4529 27.693 30.4698 27.689 30.4871C27.5492 31.3374 26.3498 38.6524 26.0276 40.6271ZM24.1345 42.519C23.4666 43.1803 23.0727 43.5305 22.6274 43.6714C22.1884 43.8103 21.7172 43.8103 21.2781 43.6714C20.7568 43.5059 20.3059 43.0561 19.4052 42.1543L9.34353 32.0926L11.9717 28.0167C11.984 27.9966 11.9963 27.9787 12.0164 27.9641C12.0444 27.944 12.0847 27.953 12.1182 27.9641C12.7215 28.1461 13.3691 28.1133 13.9509 27.8713C13.9811 27.8601 14.0113 27.8523 14.0348 27.8735C14.0465 27.8842 14.0571 27.8962 14.0661 27.9093L24.1345 42.5202V42.519ZM8.3735 31.1226L6.06535 28.8145L10.6235 26.8699C10.6351 26.8648 10.6477 26.8622 10.6604 26.8621C10.6984 26.8621 10.7208 26.9001 10.741 26.9348C10.7868 27.0053 10.8353 27.074 10.8864 27.1407L10.9009 27.1586C10.9144 27.1776 10.9054 27.1966 10.892 27.2145L8.37462 31.1226H8.3735ZM5.04385 27.793L2.12369 24.8728C1.62693 24.376 1.26667 24.0158 1.01605 23.7059L9.89511 25.5475C9.90627 25.5495 9.91746 25.5514 9.92868 25.5531C9.9835 25.562 10.0439 25.5721 10.0439 25.6235C10.0439 25.6795 9.97791 25.7052 9.92196 25.7265L9.89623 25.7377L5.04385 27.793ZM0.505859 22.2044C0.515978 22.0163 0.549811 21.8302 0.606554 21.6506C0.772142 21.1292 1.22191 20.6794 2.12369 19.7776L5.8606 16.0407C7.58118 18.5378 9.30642 21.0317 11.0363 23.5224C11.0665 23.5626 11.1001 23.6074 11.0654 23.641C10.9021 23.8211 10.7387 24.018 10.6235 24.2317C10.611 24.2592 10.5917 24.283 10.5675 24.3011C10.553 24.31 10.5373 24.3067 10.5205 24.3033H10.5183L0.505859 22.2033V22.2044ZM6.86084 15.0405L11.8855 10.0158C12.3577 10.2228 14.0762 10.9489 15.6135 11.5978C16.7771 12.0901 17.8377 12.5377 18.1711 12.6831C18.2047 12.6965 18.2349 12.71 18.2494 12.7435C18.2584 12.7637 18.2539 12.7894 18.2494 12.8107C18.1699 13.1734 18.1817 13.5501 18.2839 13.9071C18.386 14.2641 18.5753 14.5901 18.8346 14.8559C18.8682 14.8894 18.8346 14.9376 18.8055 14.979L18.7898 15.0024L13.688 22.9048C13.6745 22.9272 13.6622 22.9462 13.6398 22.9607C13.613 22.9775 13.575 22.9697 13.5436 22.9618C13.3452 22.9098 13.1412 22.882 12.9361 22.879C12.7526 22.879 12.5535 22.9126 12.3521 22.9495H12.351C12.3286 22.9529 12.3084 22.9574 12.2905 22.9439C12.2708 22.9278 12.2538 22.9085 12.2402 22.8869L6.86084 15.0405ZM12.9003 9.00102L19.4052 2.49612C20.3059 1.59546 20.7568 1.14457 21.2781 0.980104C21.7172 0.841267 22.1884 0.841267 22.6274 0.980104C23.1488 1.14457 23.5997 1.59546 24.5004 2.49612L25.9101 3.90585L21.2837 11.0709C21.2723 11.0917 21.2567 11.11 21.2379 11.1246C21.2099 11.1436 21.1707 11.1358 21.1372 11.1246C20.7724 11.0139 20.3862 10.9937 20.0119 11.0659C19.6376 11.138 19.2865 11.3002 18.989 11.5385C18.9588 11.5699 18.914 11.552 18.876 11.5352C18.2718 11.2723 13.5727 9.28633 12.9003 9.00102ZM26.8924 4.88819L31.1641 9.1599L30.1348 15.535V15.5518C30.1339 15.5663 30.1309 15.5806 30.1259 15.5943C30.1147 15.6167 30.0923 15.6212 30.0699 15.6279C29.8498 15.6945 29.6426 15.7978 29.4568 15.9333C29.4488 15.939 29.4413 15.9454 29.4344 15.9523C29.4221 15.9658 29.4098 15.9781 29.3897 15.9803C29.3733 15.9808 29.357 15.9782 29.3416 15.9725L22.8322 13.2067L22.8199 13.2011C22.7785 13.1843 22.7293 13.1642 22.7293 13.1217C22.691 12.7589 22.5725 12.4093 22.3824 12.098C22.3511 12.0465 22.3164 11.9928 22.3433 11.9402L26.8924 4.88819ZM22.4932 14.5169L28.5953 17.1014C28.6289 17.117 28.6658 17.1316 28.6803 17.1663C28.6862 17.1871 28.6862 17.2092 28.6803 17.23C28.6624 17.3196 28.6468 17.4214 28.6468 17.5243V17.6955C28.6468 17.738 28.6031 17.7559 28.5629 17.7727L28.5506 17.7772C27.5839 18.19 14.9791 23.5649 14.9601 23.5649C14.9411 23.5649 14.9209 23.5649 14.9019 23.5459C14.8683 23.5123 14.9019 23.4653 14.9321 23.4228C14.9374 23.4154 14.9427 23.408 14.9478 23.4004L19.9624 15.6357L19.9713 15.6223C20.0004 15.5753 20.034 15.5227 20.0877 15.5227L20.138 15.5305C20.2522 15.5462 20.3529 15.5607 20.4547 15.5607C21.2155 15.5607 21.9203 15.1904 22.3455 14.5572C22.3556 14.5402 22.3685 14.5251 22.3835 14.5124C22.4137 14.49 22.4585 14.5012 22.4932 14.5169ZM15.5049 24.7934L29.2442 18.934C29.2442 18.934 29.2644 18.934 29.2834 18.9531C29.3583 19.028 29.4221 19.0784 29.4837 19.1254L29.5139 19.1444C29.5418 19.16 29.5698 19.1779 29.572 19.207C29.572 19.2182 29.572 19.2249 29.5698 19.235L28.3928 26.4649L28.3883 26.494C28.3805 26.5499 28.3727 26.6137 28.3201 26.6137C28.0063 26.6349 27.7024 26.7323 27.4347 26.8974C27.167 27.0625 26.9436 27.2904 26.7839 27.5614L26.7783 27.5703C26.7627 27.596 26.7481 27.6207 26.7224 27.6341C26.6989 27.6453 26.6687 27.6408 26.6441 27.6352L15.6873 25.3752C15.6761 25.3729 15.5173 24.7945 15.5049 24.7934Z" fill="url(#paint0_radial_1862_19214)"/>
<defs>
<radialGradient id="paint0_radial_1862_19214" cx="0" cy="0" r="1" gradientUnits="userSpaceOnUse" gradientTransform="translate(-0.932881 21.7205) rotate(90) scale(42.8524 49.4747)">
<stop stop-color="#20C6B7"/>
<stop offset="1" stop-color="#4D9ABF"/>
</radialGradient>
</defs>
</svg>
