<svg width="476" height="120" viewBox="0 0 476 120" fill="none" 
role="img" aria-label="Women of Jamstack"
xmlns="http://www.w3.org/2000/svg">
<title>Women of Jamstack</title>
<g filter="url(#filter0_d_1893_18769)">
<path d="M21.6609 34.3497L27.5618 32.7686C28.0634 32.6342 28.4517 32.6575 28.7266 32.8385C29.0208 32.9861 29.2351 33.3106 29.3695 33.8123L33.4868 49.1782C33.7132 50.0231 33.8858 50.8258 34.0047 51.5862C34.1429 52.3132 34.1713 53.2112 34.0898 54.28L33.5528 60.1966C33.5269 60.628 33.4209 61.0243 33.2347 61.3854C33.0678 61.7131 32.7731 61.9336 32.3507 62.0468L27.0835 63.4581C26.6611 63.5713 26.2535 63.5815 25.8607 63.4886C25.468 63.3958 25.1622 63.1523 24.9434 62.7581L21.392 56.791C21.2421 56.5482 21.0905 56.4049 20.9372 56.361C20.8033 56.2837 20.6572 56.2663 20.4988 56.3088L20.1423 56.4043C19.9839 56.4467 19.8529 56.5384 19.7491 56.6794C19.6648 56.7869 19.6183 56.9833 19.6099 57.2685L19.4782 64.2225C19.4787 64.6469 19.3621 65.0036 19.1282 65.2926C18.8873 65.5552 18.5557 65.7431 18.1332 65.8563L12.9057 67.257C12.4832 67.3702 12.0782 67.3373 11.6907 67.1581C11.3295 66.9719 11.0263 66.6853 10.7811 66.2983L7.33656 61.3636C6.73158 60.4787 6.29398 59.6904 6.02377 58.9988C5.77288 58.2737 5.53425 57.4887 5.30787 56.6439L1.2118 41.3571C1.07739 40.8555 1.08749 40.4708 1.24211 40.2029C1.41606 39.9017 1.75385 39.6838 2.25549 39.5494L8.35434 37.9152C8.85598 37.7808 9.24424 37.8041 9.51913 37.9851C9.81334 38.1327 10.0277 38.4573 10.1621 38.9589L14.0671 53.5328L15.027 47.9273C15.118 47.4219 15.3103 47.0308 15.604 46.754C15.8977 46.4773 16.2954 46.2717 16.797 46.1372L18.4604 45.6916C18.962 45.5571 19.4092 45.5364 19.8019 45.6292C20.1947 45.7221 20.5568 45.9646 20.8883 46.3568L24.5223 50.7313L20.6172 36.1574C20.4828 35.6558 20.4929 35.2711 20.6476 35.0033C20.8215 34.702 21.1593 34.4841 21.6609 34.3497ZM63.891 45.5732C64.2164 46.7877 64.3287 47.9461 64.2279 49.0484C64.1464 50.1173 63.7392 51.1319 63.0061 52.0924C62.2924 53.0193 61.1833 53.8966 59.6789 54.7242C58.2009 55.5447 56.2342 56.2839 53.7788 56.9418C51.3234 57.5997 49.2374 57.9464 47.5208 57.9819C45.8042 58.0175 44.3918 57.8158 43.2838 57.3769C42.1952 56.9046 41.3351 56.2295 40.7038 55.3517C40.0917 54.4404 39.623 53.3775 39.2975 52.163L35.679 38.6584C35.3536 37.4439 35.2316 36.3022 35.3131 35.2334C35.4139 34.1311 35.8176 33.1032 36.5243 32.1499C37.2573 31.1894 38.3761 30.2954 39.8805 29.4678C41.3849 28.6402 43.3648 27.8975 45.8201 27.2396C48.2755 26.5817 50.3483 26.2385 52.0386 26.2101C53.7552 26.1746 55.1579 26.393 56.2465 26.8653C57.3616 27.3305 58.2252 28.0188 58.8372 28.9301C59.4686 29.808 59.947 30.8541 60.2724 32.0686L63.891 45.5732ZM47.9054 48.3285C48.0469 48.8565 48.3652 49.2523 48.8602 49.5158C49.3482 49.7529 50.3051 49.6805 51.7308 49.2984C53.1565 48.9164 54.0214 48.5007 54.3255 48.0514C54.6224 47.5757 54.7002 47.0738 54.5587 46.5457L51.7042 35.8925C51.5698 35.3909 51.2586 35.0215 50.7706 34.7844C50.2755 34.5209 49.3151 34.5801 47.8894 34.9622C46.4637 35.3442 45.6024 35.7731 45.3054 36.2488C45.0013 36.6981 44.9165 37.1736 45.0509 37.6753L47.9054 48.3285ZM78.2648 49.7441L72.3639 51.3253C71.8623 51.4597 71.4644 51.4531 71.1701 51.3056C70.8953 51.1245 70.6906 50.7832 70.5562 50.2816L63.6799 24.6188C63.5455 24.1172 63.5556 23.7325 63.7102 23.4647C63.8842 23.1634 64.2219 22.9455 64.7236 22.8111L71.0997 21.1027C71.5221 20.9895 71.8901 20.9899 72.2036 21.104C72.5436 21.211 72.8889 21.4438 73.2397 21.8026L78.5337 27.3029C78.7294 27.5051 78.881 27.6484 78.9885 27.7328C79.1224 27.8101 79.2685 27.8275 79.427 27.7851L79.7834 27.6896C79.9418 27.6471 80.0464 27.5625 80.0974 27.4357C80.1747 27.3018 80.2475 27.0983 80.3158 26.8253L82.1108 19.4256C82.2352 18.9395 82.4047 18.5687 82.6192 18.3131C82.8601 18.0505 83.1918 17.8626 83.6142 17.7494L90.0299 16.0303C90.5315 15.8959 90.9198 15.9192 91.1947 16.1002C91.4889 16.2478 91.7032 16.5724 91.8376 17.074L98.7139 42.7367C98.8483 43.2384 98.8286 43.6398 98.6546 43.9411C98.5 44.2089 98.1719 44.41 97.6702 44.5445L91.5714 46.1786C91.0697 46.313 90.6718 46.3065 90.3776 46.1589C90.1027 45.9779 89.898 45.6366 89.7636 45.1349L86.0284 31.1947L84.8484 36.1375C84.7311 36.65 84.5291 37.0579 84.2425 37.361C83.9752 37.6307 83.5907 37.8328 83.0891 37.9672L81.5049 38.3917C81.0033 38.5261 80.5561 38.5469 80.1634 38.454C79.7899 38.3277 79.4243 38.072 79.0664 37.6868L75.5732 33.9962L79.3085 47.9364C79.4429 48.438 79.4231 48.8395 79.2492 49.1408C79.0945 49.4086 78.7664 49.6097 78.2648 49.7441ZM124.348 37.3961L105.972 42.3199C105.471 42.4543 105.073 42.4478 104.779 42.3002C104.504 42.1192 104.299 41.7779 104.165 41.2762L97.2883 15.6135C97.1539 15.1119 97.164 14.7271 97.3186 14.4593C97.4925 14.158 97.8303 13.9402 98.332 13.8058L116.708 8.88201C117.209 8.7476 117.598 8.7709 117.873 8.95192C118.167 9.09947 118.381 9.42406 118.515 9.9257L119.757 14.5592C119.891 15.0609 119.872 15.4623 119.698 15.7636C119.543 16.0314 119.215 16.2326 118.713 16.367L107.783 19.2958L108.6 22.3452L116.323 20.2759C116.824 20.1415 117.212 20.1648 117.487 20.3458C117.782 20.4934 117.996 20.818 118.13 21.3196L119.266 25.5571C119.4 26.0588 119.38 26.4602 119.206 26.7615C119.052 27.0293 118.724 27.2305 118.222 27.3649L110.499 29.4341L111.412 32.84L122.342 29.9112C122.844 29.7768 123.232 29.8001 123.507 29.9811C123.801 30.1286 124.016 30.4532 124.15 30.9549L125.392 35.5884C125.526 36.0901 125.506 36.4915 125.332 36.7928C125.178 37.0606 124.85 37.2617 124.348 37.3961ZM137.825 33.7851L131.884 35.3768C131.383 35.5112 130.985 35.5046 130.691 35.3571C130.416 35.1761 130.211 34.8347 130.077 34.3331L123.2 8.67038C123.066 8.16875 123.076 7.78402 123.231 7.51621C123.405 7.21492 123.742 6.99707 124.244 6.86266L128.363 5.75906C128.864 5.62464 129.308 5.59066 129.694 5.6571C130.106 5.71647 130.537 5.89819 130.986 6.20225L141.025 12.9355L138.764 4.50003C138.63 3.9984 138.64 3.61367 138.795 3.34586C138.969 3.04457 139.306 2.82672 139.808 2.69231L145.748 1.10057C146.25 0.966158 146.638 0.989463 146.913 1.17049C147.207 1.31803 147.422 1.64262 147.556 2.14426L154.432 27.807C154.567 28.3086 154.547 28.7101 154.373 29.0114C154.219 29.2792 153.89 29.4803 153.389 29.6147L147.448 31.2064C146.947 31.3409 146.549 31.3343 146.255 31.1867C145.98 31.0057 145.775 30.6644 145.641 30.1628L144.335 25.2916L135.367 18.9084L138.869 31.9773C139.003 32.479 138.983 32.8804 138.809 33.1817C138.655 33.4495 138.326 33.6506 137.825 33.7851ZM43.4021 100.756C43.7275 101.971 43.8398 103.129 43.739 104.232C43.6575 105.301 43.2503 106.315 42.5172 107.276C41.8035 108.203 40.6944 109.08 39.19 109.907C37.712 110.728 35.7453 111.467 33.2899 112.125C30.8345 112.783 28.7485 113.13 27.0319 113.165C25.3153 113.201 23.9029 112.999 22.7949 112.56C21.7063 112.088 20.8462 111.413 20.2149 110.535C19.6028 109.624 19.1341 108.561 18.8086 107.346L15.1901 93.8416C14.8647 92.6271 14.7427 91.4855 14.8242 90.4166C14.925 89.3143 15.3287 88.2865 16.0354 87.3331C16.7684 86.3726 17.8872 85.4786 19.3916 84.6511C20.896 83.8235 22.8759 83.0807 25.3312 82.4228C27.7866 81.7649 29.8594 81.4217 31.5497 81.3933C33.2663 81.3578 34.669 81.5762 35.7576 82.0485C36.8727 82.5138 37.7363 83.2021 38.3483 84.1134C38.9797 84.9912 39.4581 86.0374 39.7835 87.2518L43.4021 100.756ZM27.4165 103.512C27.558 104.04 27.8763 104.436 28.3713 104.699C28.8593 104.936 29.8162 104.864 31.2419 104.482C32.6676 104.1 33.5325 103.684 33.8365 103.235C34.1335 102.759 34.2113 102.257 34.0698 101.729L31.2153 91.0758C31.0809 90.5741 30.7697 90.2048 30.2817 89.9676C29.7866 89.7041 28.8262 89.7634 27.4005 90.1454C25.9748 90.5274 25.1134 90.9563 24.8165 91.432C24.5124 91.8814 24.4276 92.3569 24.562 92.8585L27.4165 103.512ZM58.0135 104.864L51.875 106.508C51.3734 106.643 50.9755 106.636 50.6812 106.489C50.4064 106.308 50.2017 105.966 50.0673 105.465L43.191 79.8021C43.0566 79.3004 43.0667 78.9157 43.2213 78.6479C43.3952 78.3466 43.733 78.1288 44.2347 77.9944L61.8976 73.2616C62.3992 73.1272 62.7875 73.1505 63.0624 73.3315C63.3566 73.4791 63.5709 73.8037 63.7053 74.3053L64.9681 79.018C65.1025 79.5197 65.0827 79.9211 64.9088 80.2224C64.7542 80.4902 64.426 80.6913 63.9244 80.8258L53.8257 83.5317L54.9293 87.6504L61.8202 85.804C62.3218 85.6696 62.7101 85.6929 62.985 85.8739C63.2792 86.0215 63.4935 86.3461 63.6279 86.8477L64.9013 91.6001C65.0357 92.1017 65.0159 92.5032 64.842 92.8044C64.6874 93.0723 64.3592 93.2734 63.8576 93.4078L56.9667 95.2542L59.0572 103.056C59.1916 103.558 59.1718 103.959 58.9979 104.26C58.8432 104.528 58.5151 104.729 58.0135 104.864Z" fill="white"/>
</g>
<path d="M176.347 85.3714V66.2754H168.273V87.3793C168.273 89.1308 168.145 91.3951 165.838 91.3951C163.788 91.3951 163.489 89.3017 163.403 87.721H154.816C154.816 92.3349 156.696 96.0943 161.182 97.7177C162.506 98.2303 164.001 98.4866 165.454 98.4866C168.829 98.4866 172.246 96.9914 174.382 94.3428C176.347 91.865 176.347 88.4045 176.347 85.3714ZM205.893 97.8886V74.1787H198.801V76.6992H198.716C197.306 74.3495 194.401 73.367 191.795 73.367C184.661 73.367 179.876 79.0915 179.876 86.0122C179.876 93.0612 184.49 98.7003 191.795 98.7003C194.358 98.7003 197.434 97.7604 198.716 95.3253H198.801V97.8886H205.893ZM198.801 86.0122C198.801 89.4298 196.324 92.0786 192.863 92.0786C189.531 92.0786 186.968 89.3871 186.968 86.0976C186.968 82.7227 189.36 79.9886 192.82 79.9886C196.281 79.9886 198.801 82.5518 198.801 86.0122ZM247.464 97.8886V84.9442C247.464 81.313 247.592 78.4934 244.901 75.7593C243.235 74.0505 241.013 73.367 238.664 73.367C235.46 73.367 232.854 74.9049 231.145 77.5963C229.692 74.9049 227.385 73.367 224.31 73.367C221.618 73.367 219.14 74.2641 217.773 76.6992H217.688V74.1787H211.066V97.8886H218.158V85.286C218.158 82.5091 218.884 80.0313 222.174 80.0313C225.164 80.0313 225.719 82.5518 225.719 84.9869V97.8886H232.811V84.9442C232.811 82.2528 233.58 80.0313 236.741 80.0313C240.031 80.0313 240.372 82.68 240.372 85.286V97.8886H247.464ZM270.223 90.626C270.223 82.2528 258.304 84.3461 258.304 80.6294C258.304 79.5614 259.372 79.0488 260.312 79.0488C261.551 79.0488 262.491 79.5187 262.534 80.843H269.497C269.027 75.802 265.14 73.367 260.398 73.367C255.827 73.367 251.213 76.2292 251.213 81.1848C251.213 84.517 254.032 86.354 256.852 87.3793C257.877 87.7637 258.902 88.1055 259.928 88.4473C261.209 88.9599 263.132 89.4725 263.132 91.1815C263.132 92.4204 261.722 93.0184 260.654 93.0184C259.244 93.0184 258.176 92.2922 257.963 90.8396H250.914C251.469 96.0516 255.613 98.7003 260.569 98.7003C265.396 98.7003 270.223 95.9661 270.223 90.626ZM285.689 79.5614V74.1787H282.272V66.2754H275.18V74.1787H271.677V79.5614H275.18V97.8886H282.272V79.5614H285.689ZM313.028 97.8886V74.1787H305.936V76.6992H305.851C304.441 74.3495 301.536 73.367 298.93 73.367C291.796 73.367 287.011 79.0915 287.011 86.0122C287.011 93.0612 291.625 98.7003 298.93 98.7003C301.493 98.7003 304.569 97.7604 305.851 95.3253H305.936V97.8886H313.028ZM305.936 86.0122C305.936 89.4298 303.458 92.0786 299.998 92.0786C296.666 92.0786 294.102 89.3871 294.102 86.0976C294.102 82.7227 296.495 79.9886 299.955 79.9886C303.415 79.9886 305.936 82.5518 305.936 86.0122ZM342.167 88.8745H334.947C333.879 90.925 332.171 92.0359 329.821 92.0359C326.361 92.0359 324.182 89.3444 324.182 86.0122C324.182 82.8082 326.232 79.9886 329.65 79.9886C332.085 79.9886 333.922 81.0994 334.947 83.3208H342.124C340.885 77.2972 335.631 73.367 329.565 73.367C322.516 73.367 317.048 78.9633 317.048 85.9695C317.048 93.0612 322.644 98.6575 329.735 98.6575C335.716 98.6575 340.8 94.6845 342.167 88.8745ZM367.871 74.1787H359.456L352.877 82.7654H352.791V66.2754H345.7V97.8886H352.791V86.4821H352.877L359.584 97.8886H367.615L358.943 84.6024L367.871 74.1787Z" fill="white"/>
<path d="M114.883 58C100.571 58 89 69.5709 89 83.8833C89 98.1956 100.571 109.766 114.883 109.766C129.196 109.766 140.766 98.1956 140.766 83.8833V58H114.883Z" fill="#F0047F"/>
<path d="M114.046 84.6836V102.832C104.224 102.416 96.314 94.506 95.8984 84.6836H114.046Z" fill="white" stroke="#F0047F" stroke-width="0.534005"/>
<path d="M115.684 84.7207H133.832C133.416 94.5429 125.506 102.453 115.684 102.869V84.7207Z" fill="white" stroke="#F0047F" stroke-width="0.534005"/>
<path d="M115.684 83.0461V64.8887H133.841V83.0461H115.684Z" fill="white" stroke="#F0047F" stroke-width="0.534005"/>
<path d="M321.501 33.9794C321.216 34.2648 320.876 34.4906 320.503 34.6437C320.129 34.7968 319.729 34.8742 319.325 34.8713C311.204 34.8067 307.154 30.4551 303.556 26.6334C300.278 23.1393 297.688 20.3689 292.186 20.3301C286.684 20.2914 284.065 23.0143 280.734 26.4654C277.085 30.2439 272.957 34.5266 264.84 34.4663C256.723 34.4059 252.669 30.0501 249.067 26.2327C245.792 22.7342 243.207 19.9682 237.705 19.9295C232.203 19.8907 229.575 22.6136 226.245 26.0647C222.604 29.8432 218.472 34.1215 210.351 34.0655C202.229 34.0095 198.179 29.6493 194.578 25.832C191.303 22.3335 188.718 19.5675 183.212 19.5244C182.426 19.4854 181.686 19.144 181.146 18.5716C180.607 17.9992 180.309 17.2402 180.317 16.4536C180.324 15.6669 180.635 14.9136 181.185 14.3512C181.735 13.7888 182.482 13.4611 183.268 13.4365C191.385 13.4968 195.439 17.8527 199.037 21.6743C202.316 25.1685 204.905 27.9389 210.407 27.9776C215.909 28.0164 218.541 25.2892 221.867 21.8424C225.508 18.0639 229.636 13.7812 237.757 13.8372C245.879 13.8933 249.929 18.2535 253.526 22.0751C256.805 25.5779 259.394 28.3396 264.896 28.3784C270.398 28.4171 273.026 25.6942 276.348 22.2431C279.993 18.4689 284.125 14.1819 292.242 14.2422C300.359 14.3026 304.414 18.6585 308.016 22.4757C311.29 25.9742 313.875 28.7403 319.377 28.7791C319.979 28.7817 320.567 28.9628 321.067 29.2996C321.566 29.6364 321.955 30.1137 322.183 30.6712C322.411 31.2287 322.469 31.8413 322.349 32.4317C322.229 33.0221 321.937 33.5637 321.51 33.988L321.501 33.9794Z" fill="url(#paint0_linear_1893_18769)"/>
<path d="M320.881 35.5675C321.065 35.4921 321.243 35.4036 321.413 35.3026L321.507 35.3971L322.213 34.6967C322.781 34.1333 323.168 33.4142 323.327 32.6305C323.487 31.8468 323.41 31.0334 323.107 30.2932C322.804 29.553 322.288 28.9194 321.625 28.4723C320.963 28.0256 320.183 27.7852 319.384 27.7812C316.822 27.7631 314.987 27.1172 313.405 26.0882C311.782 25.0329 310.4 23.5633 308.744 21.7939L308.742 21.7909L308.637 21.6796C305.05 17.8776 300.739 13.3074 292.25 13.2443C283.712 13.1809 279.32 17.7292 275.674 21.5046L275.63 21.5499L275.629 21.5511C273.95 23.2959 272.546 24.7442 270.908 25.7748C269.311 26.7798 267.465 27.3985 264.903 27.3804C262.341 27.3624 260.505 26.7173 258.921 25.6888C257.297 24.634 255.913 23.1643 254.255 21.3932L254.253 21.3911L254.15 21.2814C250.567 17.4746 246.259 12.8979 237.764 12.8393C229.213 12.7804 224.825 17.3346 221.18 21.1179L221.149 21.1495C219.467 22.8924 218.062 24.3409 216.422 25.3723C214.822 26.3782 212.976 26.9978 210.414 26.9797C207.853 26.9617 206.017 26.3148 204.432 25.2851C202.807 24.2289 201.423 22.759 199.765 20.9916L199.764 20.9904C199.733 20.9576 199.702 20.9248 199.671 20.892C196.086 17.0824 191.774 12.5018 183.275 12.4386L183.256 12.4385L183.237 12.4391C182.193 12.4717 181.202 12.9068 180.472 13.6534C179.741 14.4001 179.328 15.4002 179.319 16.4446C179.309 17.489 179.704 18.4966 180.42 19.2565C181.137 20.0164 182.119 20.4698 183.163 20.5215L183.183 20.5226L183.204 20.5227C185.768 20.5428 187.605 21.1898 189.188 22.2193C190.811 23.2752 192.193 24.7449 193.849 26.5143L193.852 26.5172C193.89 26.5579 193.929 26.5988 193.967 26.6397C197.551 30.4391 201.859 35.0053 210.344 35.0638C218.904 35.1229 223.296 30.5642 226.944 26.7779L226.963 26.758C228.647 25.0128 230.053 23.5644 231.692 22.5335C233.291 21.5284 235.136 20.9097 237.698 20.9278C240.26 20.9458 242.095 21.5917 243.677 22.6206C245.3 23.676 246.682 25.1456 248.338 26.915L248.341 26.9179L248.446 27.0292C252.033 30.8313 256.344 35.4015 264.833 35.4646C273.37 35.528 277.758 30.9842 281.408 27.2046L281.452 27.159L281.453 27.1587C283.137 25.413 284.54 23.9647 286.178 22.9339C287.774 21.929 289.617 21.3104 292.179 21.3284C294.74 21.3465 296.577 21.9933 298.161 23.0231C299.786 24.0792 301.17 25.5491 302.828 27.3166L302.83 27.3178L302.922 27.4163C306.508 31.2261 310.815 35.8019 319.317 35.8696H319.318C319.854 35.8734 320.385 35.7707 320.881 35.5675Z" stroke="#161A2B" stroke-width="1.99626"/>
<path fill-rule="evenodd" clip-rule="evenodd" d="M385.945 28.739L426.516 17.8682L430.125 31.339L403.026 38.6003L410.287 65.6998L396.816 69.3093L385.945 28.739Z" fill="url(#paint1_linear_1893_18769)"/>
<path d="M385.606 27.4757L384.344 27.814L384.682 29.0767L395.553 69.647L395.891 70.9097L397.154 70.5714L410.625 66.9618L411.887 66.6236L411.549 65.3609L404.626 39.524L430.463 32.6011L431.726 32.2627L431.387 31.0001L427.778 17.5293L427.439 16.2666L426.177 16.6049L385.606 27.4757Z" stroke="#161A2B" stroke-width="2.6144"/>
<path fill-rule="evenodd" clip-rule="evenodd" d="M467.324 75.7227L426.754 86.5932L423.145 73.1225L450.244 65.8613L442.983 38.7618L456.453 35.1523L467.324 75.7227Z" fill="url(#paint2_linear_1893_18769)"/>
<path d="M467.662 76.9849L468.925 76.6466L468.587 75.3839L457.716 34.8134L457.377 33.5508L456.115 33.8891L442.644 37.4986L441.381 37.8369L441.719 39.0996L448.642 64.9364L422.806 71.8594L421.543 72.1975L421.881 73.4602L425.491 86.9309L425.829 88.1936L427.092 87.8554L467.662 76.9849Z" stroke="#161A2B" stroke-width="2.6144"/>
<defs>
<filter id="filter0_d_1893_18769" x="0.591797" y="0.124023" width="172.805" height="119.301" filterUnits="userSpaceOnUse" color-interpolation-filters="sRGB">
<feFlood flood-opacity="0" result="BackgroundImageFix"/>
<feColorMatrix in="SourceAlpha" type="matrix" values="0 0 0 0 0 0 0 0 0 0 0 0 0 0 0 0 0 0 127 0" result="hardAlpha"/>
<feOffset dx="6" dy="4"/>
<feComposite in2="hardAlpha" operator="out"/>
<feColorMatrix type="matrix" values="0 0 0 0 0 0 0 0 0 0 0 0 0 0 0 0 0 0 1 0"/>
<feBlend mode="normal" in2="BackgroundImageFix" result="effect1_dropShadow_1893_18769"/>
<feBlend mode="normal" in="SourceGraphic" in2="effect1_dropShadow_1893_18769" result="shape"/>
</filter>
<linearGradient id="paint0_linear_1893_18769" x1="179.054" y1="16.4816" x2="259.036" y2="96.4623" gradientUnits="userSpaceOnUse">
<stop stop-color="#F0047F"/>
<stop offset="1" stop-color="#FC814A"/>
</linearGradient>
<linearGradient id="paint1_linear_1893_18769" x1="385.945" y1="28.739" x2="396.816" y2="69.3093" gradientUnits="userSpaceOnUse">
<stop stop-color="#04A2DD"/>
<stop offset="1" stop-color="#4FF3EA"/>
</linearGradient>
<linearGradient id="paint2_linear_1893_18769" x1="467.324" y1="75.7227" x2="456.453" y2="35.1523" gradientUnits="userSpaceOnUse">
<stop stop-color="#04A2DD"/>
<stop offset="1" stop-color="#4FF3EA"/>
</linearGradient>
</defs>
</svg>
